<?xml version="1.0" encoding="UTF-8" standalone="no"?>
<!DOCTYPE svg PUBLIC "-//W3C//DTD SVG 1.1//EN"
 "http://www.w3.org/Graphics/SVG/1.1/DTD/svg11.dtd">
<!-- Generated by graphviz version 2.43.0 (0)
 -->
<!-- Title: StatusIndicator::setStatusWithMode Pages: 1 -->
<svg width="362pt" height="249pt"
 viewBox="0.00 0.00 362.00 249.00" xmlns="http://www.w3.org/2000/svg" xmlns:xlink="http://www.w3.org/1999/xlink">
<g id="graph0" class="graph" transform="scale(1 1) rotate(0) translate(4 245)">
<title>StatusIndicator::setStatusWithMode</title>
<!-- Node1 -->
<g id="Node000001" class="node">
<title>Node1</title>
<g id="a_Node000001"><a xlink:title="Set both status type and animation mode.">
<polygon fill="#999999" stroke="#666666" points="354,-135.5 212,-135.5 212,-105.5 354,-105.5 354,-135.5"/>
<text text-anchor="start" x="220" y="-123.5" font-family="Helvetica,sans-Serif" font-size="10.00">StatusIndicator::setStatus</text>
<text text-anchor="middle" x="283" y="-112.5" font-family="Helvetica,sans-Serif" font-size="10.00">WithMode</text>
</a>
</g>
</g>
<!-- Node2 -->
<g id="Node000002" class="node">
<title>Node2</title>
<g id="a_Node000002"><a xlink:href="classStatusIndicator.html#aa352696f746ce7c38dfb92e45953009f" target="_top" xlink:title="Show connecting status (cyan breathing)">
<polygon fill="white" stroke="#666666" points="176,-241 0,-241 0,-222 176,-222 176,-241"/>
<text text-anchor="middle" x="88" y="-229" font-family="Helvetica,sans-Serif" font-size="10.00">StatusIndicator::showConnecting</text>
</a>
</g>
</g>
<!-- Node1&#45;&gt;Node2 -->
<g id="edge1_Node000001_Node000002" class="edge">
<title>Node1&#45;&gt;Node2</title>
<g id="a_edge1_Node000001_Node000002"><a xlink:title=" ">
<path fill="none" stroke="#63b8ff" d="M262.45,-143.44C242.82,-164.94 210.59,-196.27 176,-213.5 169.1,-216.94 161.57,-219.72 153.93,-221.97"/>
<polygon fill="#63b8ff" stroke="#63b8ff" points="265.29,-145.52 269.34,-135.73 260.07,-140.85 265.29,-145.52"/>
</a>
</g>
</g>
<!-- Node3 -->
<g id="Node000003" class="node">
<title>Node3</title>
<g id="a_Node000003"><a xlink:href="classStatusIndicator.html#a32203370e0a8c6c82aaa8c5498199357" target="_top" xlink:title="Show error status (red fast blinking)">
<polygon fill="white" stroke="#666666" points="160.5,-204 15.5,-204 15.5,-185 160.5,-185 160.5,-204"/>
<text text-anchor="middle" x="88" y="-192" font-family="Helvetica,sans-Serif" font-size="10.00">StatusIndicator::showError</text>
</a>
</g>
</g>
<!-- Node1&#45;&gt;Node3 -->
<g id="edge2_Node000001_Node000003" class="edge">
<title>Node1&#45;&gt;Node3</title>
<g id="a_edge2_Node000001_Node000003"><a xlink:title=" ">
<path fill="none" stroke="#63b8ff" d="M249.19,-140.93C228.79,-152.84 201.65,-167.28 176,-176.5 166.71,-179.84 156.63,-182.63 146.73,-184.95"/>
<polygon fill="#63b8ff" stroke="#63b8ff" points="251.25,-143.78 258.06,-135.67 247.67,-137.77 251.25,-143.78"/>
</a>
</g>
</g>
<!-- Node4 -->
<g id="Node000004" class="node">
<title>Node4</title>
<g id="a_Node000004"><a xlink:href="classStatusIndicator.html#a4b102485727038932f9a8c1b3a669d9d" target="_top" xlink:title="Show info status (blue solid)">
<polygon fill="white" stroke="#666666" points="158,-167 18,-167 18,-148 158,-148 158,-167"/>
<text text-anchor="middle" x="88" y="-155" font-family="Helvetica,sans-Serif" font-size="10.00">StatusIndicator::showInfo</text>
</a>
</g>
</g>
<!-- Node1&#45;&gt;Node4 -->
<g id="edge3_Node000001_Node000004" class="edge">
<title>Node1&#45;&gt;Node4</title>
<g id="a_edge3_Node000001_Node000004"><a xlink:title=" ">
<path fill="none" stroke="#63b8ff" d="M201.71,-135.89C180.32,-139.99 157.84,-144.3 138.62,-147.99"/>
<polygon fill="#63b8ff" stroke="#63b8ff" points="202.61,-139.28 211.78,-133.96 201.3,-132.41 202.61,-139.28"/>
</a>
</g>
</g>
<!-- Node5 -->
<g id="Node000005" class="node">
<title>Node5</title>
<g id="a_Node000005"><a xlink:href="classStatusIndicator.html#a11fa21d9e416009d7cfa7760f79bff15" target="_top" xlink:title="Show normal status (green pulsing)">
<polygon fill="white" stroke="#666666" points="167,-130 9,-130 9,-111 167,-111 167,-130"/>
<text text-anchor="middle" x="88" y="-118" font-family="Helvetica,sans-Serif" font-size="10.00">StatusIndicator::showNormal</text>
</a>
</g>
</g>
<!-- Node1&#45;&gt;Node5 -->
<g id="edge4_Node000001_Node000005" class="edge">
<title>Node1&#45;&gt;Node5</title>
<g id="a_edge4_Node000001_Node000005"><a xlink:title=" ">
<path fill="none" stroke="#63b8ff" d="M201.77,-120.5C190.27,-120.5 178.46,-120.5 167,-120.5"/>
<polygon fill="#63b8ff" stroke="#63b8ff" points="201.78,-124 211.78,-120.5 201.78,-117 201.78,-124"/>
</a>
</g>
</g>
<!-- Node6 -->
<g id="Node000006" class="node">
<title>Node6</title>
<g id="a_Node000006"><a xlink:href="classStatusIndicator.html#a59139509e89a55f7368586f97c65093e" target="_top" xlink:title="Show recovery status (red fast blinking)">
<polygon fill="white" stroke="#666666" points="171.5,-93 4.5,-93 4.5,-74 171.5,-74 171.5,-93"/>
<text text-anchor="middle" x="88" y="-81" font-family="Helvetica,sans-Serif" font-size="10.00">StatusIndicator::showRecovery</text>
</a>
</g>
</g>
<!-- Node1&#45;&gt;Node6 -->
<g id="edge5_Node000001_Node000006" class="edge">
<title>Node1&#45;&gt;Node6</title>
<g id="a_edge5_Node000001_Node000006"><a xlink:title=" ">
<path fill="none" stroke="#63b8ff" d="M201.71,-105.11C180.32,-101.01 157.84,-96.7 138.62,-93.01"/>
<polygon fill="#63b8ff" stroke="#63b8ff" points="201.3,-108.59 211.78,-107.04 202.61,-101.72 201.3,-108.59"/>
</a>
</g>
</g>
<!-- Node7 -->
<g id="Node000007" class="node">
<title>Node7</title>
<g id="a_Node000007"><a xlink:href="classStatusIndicator.html#ab17492a890febb127c2aee37f026c560" target="_top" xlink:title="Show success status (bright green solid)">
<polygon fill="white" stroke="#666666" points="168.5,-56 7.5,-56 7.5,-37 168.5,-37 168.5,-56"/>
<text text-anchor="middle" x="88" y="-44" font-family="Helvetica,sans-Serif" font-size="10.00">StatusIndicator::showSuccess</text>
</a>
</g>
</g>
<!-- Node1&#45;&gt;Node7 -->
<g id="edge6_Node000001_Node000007" class="edge">
<title>Node1&#45;&gt;Node7</title>
<g id="a_edge6_Node000001_Node000007"><a xlink:title=" ">
<path fill="none" stroke="#63b8ff" d="M248.7,-100.32C228.32,-88.72 201.36,-74.67 176,-65.5 165.68,-61.77 154.39,-58.65 143.46,-56.08"/>
<polygon fill="#63b8ff" stroke="#63b8ff" points="247.16,-103.48 257.57,-105.46 250.67,-97.42 247.16,-103.48"/>
</a>
</g>
</g>
<!-- Node8 -->
<g id="Node000008" class="node">
<title>Node8</title>
<g id="a_Node000008"><a xlink:href="classStatusIndicator.html#a0b5d29aa9ab2b5902829d49ec0f43698" target="_top" xlink:title="Show warning status (orange/yellow slow blinking)">
<polygon fill="white" stroke="#666666" points="168.5,-19 7.5,-19 7.5,0 168.5,0 168.5,-19"/>
<text text-anchor="middle" x="88" y="-7" font-family="Helvetica,sans-Serif" font-size="10.00">StatusIndicator::showWarning</text>
</a>
</g>
</g>
<!-- Node1&#45;&gt;Node8 -->
<g id="edge7_Node000001_Node000008" class="edge">
<title>Node1&#45;&gt;Node8</title>
<g id="a_edge7_Node000001_Node000008"><a xlink:title=" ">
<path fill="none" stroke="#63b8ff" d="M262.36,-97.9C242.66,-76.7 210.38,-45.74 176,-28.5 168.26,-24.62 159.75,-21.53 151.16,-19.06"/>
<polygon fill="#63b8ff" stroke="#63b8ff" points="259.95,-100.46 269.27,-105.5 265.13,-95.75 259.95,-100.46"/>
</a>
</g>
</g>
</g>
</svg>
