<?xml version="1.0" encoding="UTF-8" standalone="no"?>
<!DOCTYPE svg PUBLIC "-//W3C//DTD SVG 1.1//EN"
 "http://www.w3.org/Graphics/SVG/1.1/DTD/svg11.dtd">
<!-- Generated by graphviz version 2.43.0 (0)
 -->
<!-- Title: StatusIndicator::updateRGBCycle Pages: 1 -->
<svg width="583pt" height="64pt"
 viewBox="0.00 0.00 583.00 64.00" xmlns="http://www.w3.org/2000/svg" xmlns:xlink="http://www.w3.org/1999/xlink">
<g id="graph0" class="graph" transform="scale(1 1) rotate(0) translate(4 60)">
<title>StatusIndicator::updateRGBCycle</title>
<!-- Node1 -->
<g id="Node000001" class="node">
<title>Node1</title>
<g id="a_Node000001"><a xlink:title="Update RGB color cycling animation.">
<polygon fill="#999999" stroke="#666666" points="178,-37 0,-37 0,-18 178,-18 178,-37"/>
<text text-anchor="middle" x="89" y="-25" font-family="Helvetica,sans-Serif" font-size="10.00">StatusIndicator::updateRGBCycle</text>
</a>
</g>
</g>
<!-- Node2 -->
<g id="Node000002" class="node">
<title>Node2</title>
<g id="a_Node000002"><a xlink:href="classStatusIndicator.html#aa21eb5f09c4cb5c2d5f474270459bab8" target="_top" xlink:title="Convert HSV color space to RGB.">
<polygon fill="white" stroke="#666666" points="363,-56 220,-56 220,-37 363,-37 363,-56"/>
<text text-anchor="middle" x="291.5" y="-44" font-family="Helvetica,sans-Serif" font-size="10.00">StatusIndicator::hsvToRgb</text>
</a>
</g>
</g>
<!-- Node1&#45;&gt;Node2 -->
<g id="edge1_Node000001_Node000002" class="edge">
<title>Node1&#45;&gt;Node2</title>
<g id="a_edge1_Node000001_Node000002"><a xlink:title=" ">
<path fill="none" stroke="#63b8ff" d="M178.23,-35.86C188.71,-36.85 199.37,-37.86 209.74,-38.85"/>
<polygon fill="#63b8ff" stroke="#63b8ff" points="209.71,-42.36 219.99,-39.82 210.37,-35.39 209.71,-42.36"/>
</a>
</g>
</g>
<!-- Node3 -->
<g id="Node000003" class="node">
<title>Node3</title>
<g id="a_Node000003"><a xlink:href="classStatusIndicator.html#a7aec954d98b786c46431ea428253afba" target="_top" xlink:title="Set RGB LED color values.">
<polygon fill="white" stroke="#666666" points="369,-19 214,-19 214,0 369,0 369,-19"/>
<text text-anchor="middle" x="291.5" y="-7" font-family="Helvetica,sans-Serif" font-size="10.00">StatusIndicator::setLEDColor</text>
</a>
</g>
</g>
<!-- Node1&#45;&gt;Node3 -->
<g id="edge2_Node000001_Node000003" class="edge">
<title>Node1&#45;&gt;Node3</title>
<g id="a_edge2_Node000001_Node000003"><a xlink:title=" ">
<path fill="none" stroke="#63b8ff" d="M178.23,-19.58C186.67,-18.82 195.23,-18.05 203.66,-17.3"/>
<polygon fill="#63b8ff" stroke="#63b8ff" points="204.21,-20.76 213.86,-16.38 203.58,-13.79 204.21,-20.76"/>
</a>
</g>
</g>
<!-- Node4 -->
<g id="Node000004" class="node">
<title>Node4</title>
<g id="a_Node000004"><a xlink:href="classStatusIndicator.html#a08bafebea822193abdf2bacc3fefadb7" target="_top" xlink:title="Update WS2812 LED with current RGB values.">
<polygon fill="white" stroke="#666666" points="575,-19 405,-19 405,0 575,0 575,-19"/>
<text text-anchor="middle" x="490" y="-7" font-family="Helvetica,sans-Serif" font-size="10.00">StatusIndicator::updateWS2812</text>
</a>
</g>
</g>
<!-- Node3&#45;&gt;Node4 -->
<g id="edge3_Node000003_Node000004" class="edge">
<title>Node3&#45;&gt;Node4</title>
<g id="a_edge3_Node000003_Node000004"><a xlink:title=" ">
<path fill="none" stroke="#63b8ff" d="M369.03,-9.5C377.48,-9.5 386.14,-9.5 394.77,-9.5"/>
<polygon fill="#63b8ff" stroke="#63b8ff" points="394.86,-13 404.86,-9.5 394.86,-6 394.86,-13"/>
</a>
</g>
</g>
</g>
</svg>
