<?xml version="1.0" encoding="UTF-8" standalone="no"?>
<!DOCTYPE svg PUBLIC "-//W3C//DTD SVG 1.1//EN"
 "http://www.w3.org/Graphics/SVG/1.1/DTD/svg11.dtd">
<!-- Generated by graphviz version 2.43.0 (0)
 -->
<!-- Title: StatusIndicator::showConnecting Pages: 1 -->
<svg width="938pt" height="64pt"
 viewBox="0.00 0.00 938.00 64.00" xmlns="http://www.w3.org/2000/svg" xmlns:xlink="http://www.w3.org/1999/xlink">
<g id="graph0" class="graph" transform="scale(1 1) rotate(0) translate(4 60)">
<title>StatusIndicator::showConnecting</title>
<!-- Node1 -->
<g id="Node000001" class="node">
<title>Node1</title>
<g id="a_Node000001"><a xlink:title="Show connecting status (cyan breathing)">
<polygon fill="#999999" stroke="#666666" points="176,-37 0,-37 0,-18 176,-18 176,-37"/>
<text text-anchor="middle" x="88" y="-25" font-family="Helvetica,sans-Serif" font-size="10.00">StatusIndicator::showConnecting</text>
</a>
</g>
</g>
<!-- Node2 -->
<g id="Node000002" class="node">
<title>Node2</title>
<g id="a_Node000002"><a xlink:href="classStatusIndicator.html#a565ca4b4a5c27816e073708e3a067ece" target="_top" xlink:title="Set both status type and animation mode.">
<polygon fill="white" stroke="#666666" points="354,-42.5 212,-42.5 212,-12.5 354,-12.5 354,-42.5"/>
<text text-anchor="start" x="220" y="-30.5" font-family="Helvetica,sans-Serif" font-size="10.00">StatusIndicator::setStatus</text>
<text text-anchor="middle" x="283" y="-19.5" font-family="Helvetica,sans-Serif" font-size="10.00">WithMode</text>
</a>
</g>
</g>
<!-- Node1&#45;&gt;Node2 -->
<g id="edge1_Node000001_Node000002" class="edge">
<title>Node1&#45;&gt;Node2</title>
<g id="a_edge1_Node000001_Node000002"><a xlink:title=" ">
<path fill="none" stroke="#63b8ff" d="M176.18,-27.5C184.71,-27.5 193.33,-27.5 201.77,-27.5"/>
<polygon fill="#63b8ff" stroke="#63b8ff" points="201.98,-31 211.98,-27.5 201.98,-24 201.98,-31"/>
</a>
</g>
</g>
<!-- Node3 -->
<g id="Node000003" class="node">
<title>Node3</title>
<g id="a_Node000003"><a xlink:href="classStatusIndicator.html#af7c7d79d91d4ff1f7364cf5d9c664e51" target="_top" xlink:title="Set the animation mode.">
<polygon fill="white" stroke="#666666" points="528,-37 390,-37 390,-18 528,-18 528,-37"/>
<text text-anchor="middle" x="459" y="-25" font-family="Helvetica,sans-Serif" font-size="10.00">StatusIndicator::setMode</text>
</a>
</g>
</g>
<!-- Node2&#45;&gt;Node3 -->
<g id="edge2_Node000002_Node000003" class="edge">
<title>Node2&#45;&gt;Node3</title>
<g id="a_edge2_Node000002_Node000003"><a xlink:title=" ">
<path fill="none" stroke="#63b8ff" d="M354.02,-27.5C362.5,-27.5 371.21,-27.5 379.81,-27.5"/>
<polygon fill="#63b8ff" stroke="#63b8ff" points="379.82,-31 389.82,-27.5 379.82,-24 379.82,-31"/>
</a>
</g>
</g>
<!-- Node4 -->
<g id="Node000004" class="node">
<title>Node4</title>
<g id="a_Node000004"><a xlink:href="classStatusIndicator.html#a7aec954d98b786c46431ea428253afba" target="_top" xlink:title="Set RGB LED color values.">
<polygon fill="white" stroke="#666666" points="721.5,-56 566.5,-56 566.5,-37 721.5,-37 721.5,-56"/>
<text text-anchor="middle" x="644" y="-44" font-family="Helvetica,sans-Serif" font-size="10.00">StatusIndicator::setLEDColor</text>
</a>
</g>
</g>
<!-- Node3&#45;&gt;Node4 -->
<g id="edge3_Node000003_Node000004" class="edge">
<title>Node3&#45;&gt;Node4</title>
<g id="a_edge3_Node000003_Node000004"><a xlink:title=" ">
<path fill="none" stroke="#63b8ff" d="M528.14,-34.57C537.32,-35.53 546.84,-36.52 556.28,-37.5"/>
<polygon fill="#63b8ff" stroke="#63b8ff" points="556.18,-41 566.49,-38.56 556.9,-34.04 556.18,-41"/>
</a>
</g>
</g>
<!-- Node6 -->
<g id="Node000006" class="node">
<title>Node6</title>
<g id="a_Node000006"><a xlink:href="classStatusIndicator.html#a887ac9f319ab8b2610a480416e4534f8" target="_top" xlink:title="Set single LED brightness.">
<polygon fill="white" stroke="#666666" points="724,-19 564,-19 564,0 724,0 724,-19"/>
<text text-anchor="middle" x="644" y="-7" font-family="Helvetica,sans-Serif" font-size="10.00">StatusIndicator::setSingleLED</text>
</a>
</g>
</g>
<!-- Node3&#45;&gt;Node6 -->
<g id="edge5_Node000003_Node000006" class="edge">
<title>Node3&#45;&gt;Node6</title>
<g id="a_edge5_Node000003_Node000006"><a xlink:title=" ">
<path fill="none" stroke="#63b8ff" d="M528.14,-20.8C536.47,-19.98 545.07,-19.13 553.65,-18.29"/>
<polygon fill="#63b8ff" stroke="#63b8ff" points="554.08,-21.76 563.69,-17.3 553.4,-14.8 554.08,-21.76"/>
</a>
</g>
</g>
<!-- Node5 -->
<g id="Node000005" class="node">
<title>Node5</title>
<g id="a_Node000005"><a xlink:href="classStatusIndicator.html#a08bafebea822193abdf2bacc3fefadb7" target="_top" xlink:title="Update WS2812 LED with current RGB values.">
<polygon fill="white" stroke="#666666" points="930,-56 760,-56 760,-37 930,-37 930,-56"/>
<text text-anchor="middle" x="845" y="-44" font-family="Helvetica,sans-Serif" font-size="10.00">StatusIndicator::updateWS2812</text>
</a>
</g>
</g>
<!-- Node4&#45;&gt;Node5 -->
<g id="edge4_Node000004_Node000005" class="edge">
<title>Node4&#45;&gt;Node5</title>
<g id="a_edge4_Node000004_Node000005"><a xlink:title=" ">
<path fill="none" stroke="#63b8ff" d="M721.65,-46.5C730.82,-46.5 740.26,-46.5 749.64,-46.5"/>
<polygon fill="#63b8ff" stroke="#63b8ff" points="749.78,-50 759.78,-46.5 749.78,-43 749.78,-50"/>
</a>
</g>
</g>
</g>
</svg>
