<?xml version="1.0" encoding="UTF-8" standalone="no"?>
<!DOCTYPE svg PUBLIC "-//W3C//DTD SVG 1.1//EN"
 "http://www.w3.org/Graphics/SVG/1.1/DTD/svg11.dtd">
<!-- Generated by graphviz version 2.43.0 (0)
 -->
<!-- Title: StatusIndicator::toggle Pages: 1 -->
<svg width="704pt" height="82pt"
 viewBox="0.00 0.00 704.00 82.00" xmlns="http://www.w3.org/2000/svg" xmlns:xlink="http://www.w3.org/1999/xlink">
<g id="graph0" class="graph" transform="scale(1 1) rotate(0) translate(4 78)">
<title>StatusIndicator::toggle</title>
<!-- Node1 -->
<g id="Node000001" class="node">
<title>Node1</title>
<g id="a_Node000001"><a xlink:title="Toggle the enabled state.">
<polygon fill="#999999" stroke="#666666" points="127,-37 0,-37 0,-18 127,-18 127,-37"/>
<text text-anchor="middle" x="63.5" y="-25" font-family="Helvetica,sans-Serif" font-size="10.00">StatusIndicator::toggle</text>
</a>
</g>
</g>
<!-- Node2 -->
<g id="Node000002" class="node">
<title>Node2</title>
<g id="a_Node000002"><a xlink:href="classStatusIndicator.html#a5e362d6679ce7bd558095d3c0381837c" target="_top" xlink:title="Disable the status indicator (turns off LED)">
<polygon fill="white" stroke="#666666" points="294,-56 163,-56 163,-37 294,-37 294,-56"/>
<text text-anchor="middle" x="228.5" y="-44" font-family="Helvetica,sans-Serif" font-size="10.00">StatusIndicator::disable</text>
</a>
</g>
</g>
<!-- Node1&#45;&gt;Node2 -->
<g id="edge1_Node000001_Node000002" class="edge">
<title>Node1&#45;&gt;Node2</title>
<g id="a_edge1_Node000001_Node000002"><a xlink:title=" ">
<path fill="none" stroke="#63b8ff" d="M127.05,-34.79C135.51,-35.78 144.25,-36.8 152.89,-37.8"/>
<polygon fill="#63b8ff" stroke="#63b8ff" points="152.62,-41.29 162.95,-38.98 153.43,-34.34 152.62,-41.29"/>
</a>
</g>
</g>
<!-- Node6 -->
<g id="Node000006" class="node">
<title>Node6</title>
<g id="a_Node000006"><a xlink:href="classStatusIndicator.html#a29fd180526df07fdb6cdd2055377aba4" target="_top" xlink:title="Enable the status indicator.">
<polygon fill="white" stroke="#666666" points="293,-19 164,-19 164,0 293,0 293,-19"/>
<text text-anchor="middle" x="228.5" y="-7" font-family="Helvetica,sans-Serif" font-size="10.00">StatusIndicator::enable</text>
</a>
</g>
</g>
<!-- Node1&#45;&gt;Node6 -->
<g id="edge5_Node000001_Node000006" class="edge">
<title>Node1&#45;&gt;Node6</title>
<g id="a_edge5_Node000001_Node000006"><a xlink:title=" ">
<path fill="none" stroke="#63b8ff" d="M127.05,-20.59C135.79,-19.63 144.84,-18.63 153.77,-17.64"/>
<polygon fill="#63b8ff" stroke="#63b8ff" points="154.21,-21.11 163.77,-16.54 153.44,-14.16 154.21,-21.11"/>
</a>
</g>
</g>
<!-- Node3 -->
<g id="Node000003" class="node">
<title>Node3</title>
<g id="a_Node000003"><a xlink:href="classStatusIndicator.html#a7aec954d98b786c46431ea428253afba" target="_top" xlink:title="Set RGB LED color values.">
<polygon fill="white" stroke="#666666" points="487.5,-74 332.5,-74 332.5,-55 487.5,-55 487.5,-74"/>
<text text-anchor="middle" x="410" y="-62" font-family="Helvetica,sans-Serif" font-size="10.00">StatusIndicator::setLEDColor</text>
</a>
</g>
</g>
<!-- Node2&#45;&gt;Node3 -->
<g id="edge2_Node000002_Node000003" class="edge">
<title>Node2&#45;&gt;Node3</title>
<g id="a_edge2_Node000002_Node000003"><a xlink:title=" ">
<path fill="none" stroke="#63b8ff" d="M294.05,-52.97C303.3,-53.9 312.94,-54.87 322.53,-55.83"/>
<polygon fill="#63b8ff" stroke="#63b8ff" points="322.18,-59.31 332.48,-56.83 322.88,-52.35 322.18,-59.31"/>
</a>
</g>
</g>
<!-- Node5 -->
<g id="Node000005" class="node">
<title>Node5</title>
<g id="a_Node000005"><a xlink:href="classStatusIndicator.html#a887ac9f319ab8b2610a480416e4534f8" target="_top" xlink:title="Set single LED brightness.">
<polygon fill="white" stroke="#666666" points="490,-37 330,-37 330,-18 490,-18 490,-37"/>
<text text-anchor="middle" x="410" y="-25" font-family="Helvetica,sans-Serif" font-size="10.00">StatusIndicator::setSingleLED</text>
</a>
</g>
</g>
<!-- Node2&#45;&gt;Node5 -->
<g id="edge4_Node000002_Node000005" class="edge">
<title>Node2&#45;&gt;Node5</title>
<g id="a_edge4_Node000002_Node000005"><a xlink:title=" ">
<path fill="none" stroke="#63b8ff" d="M294.05,-39.67C302.36,-38.79 310.98,-37.88 319.6,-36.96"/>
<polygon fill="#63b8ff" stroke="#63b8ff" points="320.11,-40.43 329.69,-35.89 319.38,-33.47 320.11,-40.43"/>
</a>
</g>
</g>
<!-- Node4 -->
<g id="Node000004" class="node">
<title>Node4</title>
<g id="a_Node000004"><a xlink:href="classStatusIndicator.html#a08bafebea822193abdf2bacc3fefadb7" target="_top" xlink:title="Update WS2812 LED with current RGB values.">
<polygon fill="white" stroke="#666666" points="696,-74 526,-74 526,-55 696,-55 696,-74"/>
<text text-anchor="middle" x="611" y="-62" font-family="Helvetica,sans-Serif" font-size="10.00">StatusIndicator::updateWS2812</text>
</a>
</g>
</g>
<!-- Node3&#45;&gt;Node4 -->
<g id="edge3_Node000003_Node000004" class="edge">
<title>Node3&#45;&gt;Node4</title>
<g id="a_edge3_Node000003_Node000004"><a xlink:title=" ">
<path fill="none" stroke="#63b8ff" d="M487.65,-64.5C496.82,-64.5 506.26,-64.5 515.64,-64.5"/>
<polygon fill="#63b8ff" stroke="#63b8ff" points="515.78,-68 525.78,-64.5 515.78,-61 515.78,-68"/>
</a>
</g>
</g>
</g>
</svg>
